# xmcd CD database file generated by OrangeCD 5.2
#
# Track frame offsets:
#	150
#	30796
#	65390
#	95295
#	125332
#	158094
#
# Disc length: 2556 seconds
#
# Revision: 1
# Processed by: cddbd v1.5.1PL0 Copyright (c) Steve Scherf et al.
# Submitted via: OrangeCD 5.2
#
DISCID=3a09fa06
DTITLE=Hank Mobley - Hank Mobley Quintet
DYEAR=1900
DGENRE=Blues
TTITLE0=Funk in Deep Freeze
TTITLE1=Wham and They're off
TTITLE2=Fin de L'affaire
TTITLE3=Startin' from Scratch
TTITLE4=Stella-wise
TTITLE5=Base on Balls
EXTD=
EXTT0=
EXTT1=
EXTT2=
EXTT3=
EXTT4=
EXTT5=
PLAYORDER=
